<?xml version="1.0" encoding="utf-8"?>
<!-- Generator: Adobe Illustrator 16.0.4, SVG Export Plug-In . SVG Version: 6.00 Build 0)  -->
<!DOCTYPE svg PUBLIC "-//W3C//DTD SVG 1.1//EN" "http://www.w3.org/Graphics/SVG/1.1/DTD/svg11.dtd">
<svg version="1.1" id="Layer_1" xmlns="http://www.w3.org/2000/svg" xmlns:xlink="http://www.w3.org/1999/xlink" x="0px" y="0px"
	 width="1707.884px" height="461.628px" viewBox="0 0 1707.884 461.628" enable-background="new 0 0 1707.884 461.628"
	 xml:space="preserve">
<g>
	<path fill="#F16522" d="M620.69,187.607c5.748-5.213,12.086-7.879,18.894-7.879c9.632,0,17.429,2.666,23.229,7.879
		c3.351,3.13,5.827,6.934,7.258,11.311l11.002-3.147c-1.904-6.391-5.178-11.884-9.78-16.33
		c-7.708-7.601-18.317-11.443-31.521-11.443c-10.429,0-19.677,3.811-27.501,11.344c-7.748,7.502-11.697,17.877-11.697,30.897v41.148
		c0,13,3.949,23.401,11.697,30.876c7.824,7.531,17.072,11.358,27.501,11.358c13.214,0,23.813-3.788,31.521-11.247
		c4.606-4.563,7.881-10.264,9.803-16.934l-11.016-3.136c-1.428,4.638-3.945,8.577-7.437,11.691
		c-5.66,5.233-13.428,7.893-23.06,7.893c-6.808,0-13.146-2.659-18.894-7.911c-5.778-5.292-8.738-12.701-8.738-22.029v-42.277
		C611.952,200.341,614.912,192.919,620.69,187.607z"/>
	<rect x="696.736" y="203.714" fill="#F16522" width="11.385" height="88.391"/>
	<rect x="696.028" y="169.275" fill="#F16522" width="12.796" height="13.637"/>
	<path fill="#F16522" d="M743.958,277.6c-1.615-2.605-2.467-5.748-2.467-9.308V215.45h22.828v-11.736h-22.828v-25.4h-11.382v25.4
		h-8.997v11.736h8.997v52.842c0,7.946,2.041,14.229,6.029,18.64c4.019,4.444,9.709,6.69,16.904,6.69h12.483V281.89h-12.483
		C748.782,281.89,745.722,280.452,743.958,277.6z"/>
	<path fill="#F16522" d="M795.567,276.882c-3.608-3.346-5.449-8.008-5.449-13.853v-59.315h-11.407v59.315
		c0,9.398,2.853,16.932,8.441,22.329c5.644,5.483,12.74,8.264,21.044,8.264c4.478,0,8.323-0.673,11.368-1.968
		c2.992-1.255,5.578-3.478,7.774-6.616l2.634-3.805v13.569c0,5.821-1.857,10.488-5.549,13.838
		c-3.619,3.325-8.479,4.991-14.461,4.991c-3.72,0-7.169-0.734-10.145-2.207c-2.706-1.287-4.925-3.171-6.739-5.636l-10.171,5.568
		c2.797,4.305,6.372,7.695,10.654,10.062c4.77,2.626,10.272,3.961,16.4,3.961c9.575,0,17.272-2.793,22.853-8.253
		c5.548-5.429,8.449-12.96,8.546-22.356v-91.058h-11.389v59.315c-0.097,5.867-2.015,10.517-5.641,13.853
		c-3.552,3.311-8.378,5.008-14.369,5.008C803.952,281.89,799.126,280.192,795.567,276.882z"/>
	<path fill="#303981" d="M927.342,229.34l-1.549-1.24l1.514-1.236c3.209-2.716,5.798-6.262,7.68-10.531
		c1.926-4.282,2.871-9.226,2.871-14.743c0-10.132-3.054-18.12-9.127-23.722c-6.12-5.678-14.85-8.592-26.005-8.592h-44.817v122.829
		h46.268c10.751,0,19.361-2.979,25.62-8.9c6.151-5.876,9.308-14.109,9.308-24.489v-3.218c0-5.728-1.024-10.832-3.047-15.175
		C934.042,236,931.123,232.308,927.342,229.34z M869.431,181.061h33.295c7.014,0,12.736,1.683,16.993,5.088
		c4.335,3.502,6.581,8.692,6.581,15.44c0,6.614-2.04,11.72-6.126,15.204c-3.931,3.412-9.461,5.148-16.362,5.148h-34.381V181.061z
		 M927.694,258.715c0,6.85-2.192,12.227-6.549,15.965c-4.26,3.663-9.958,5.513-16.97,5.513h-34.745v-46.326h35.584
		c6.713,0,12.21,1.993,16.369,5.918c4.202,3.996,6.311,9.285,6.311,15.712V258.715z"/>
	<path fill="#303981" d="M969.19,277.575c-1.556-2.602-2.35-5.735-2.35-9.283v-99.017h-11.382v99.017
		c0,7.946,2.034,14.229,6.05,18.64c3.99,4.444,9.596,6.69,16.688,6.69h4.198V281.89h-4.198
		C973.918,281.89,970.881,280.452,969.19,277.575z"/>
	<path fill="#303981" d="M1010.192,276.891c-3.681-3.345-5.516-8.017-5.516-13.861v-59.315H993.28v59.315
		c0,9.421,2.632,16.949,7.868,22.377c5.227,5.45,12.544,8.216,21.771,8.216c3.217,0,6.655-0.722,10.279-2.167
		c3.507-1.409,6.478-3.523,8.76-6.331l2.58-3.14v10.12h11.384v-88.391h-11.384v60.278c-0.141,5.609-2.092,10.054-5.779,13.226
		c-3.593,3.082-8.339,4.672-14.057,4.672C1018.702,281.89,1013.831,280.192,1010.192,276.891z"/>
	<path fill="#303981" d="M1131.909,250.961v-18.177c-0.104-9.39-3.013-16.925-8.526-22.351c-5.603-5.458-13.269-8.213-22.87-8.213
		c-9.5,0-17.166,2.756-22.79,8.226c-5.614,5.413-8.442,12.939-8.442,22.338v30.245c0,9.398,2.828,16.932,8.439,22.329
		c5.627,5.483,13.293,8.264,22.793,8.264c8.444,0,15.462-2.291,20.81-6.805c4.984-4.202,8.312-10.057,9.941-17.398l-11.441-1.489
		c-1.194,4.232-3.347,7.593-6.541,9.999c-3.491,2.626-7.77,3.961-12.769,3.961c-6.014,0-10.859-1.697-14.402-5.008
		c-3.611-3.346-5.456-8.008-5.456-13.853v-12.068H1131.909z M1080.654,232.785c0-5.834,1.845-10.521,5.456-13.857
		c3.543-3.313,8.389-4.983,14.402-4.983c5.981,0,10.827,1.67,14.394,4.983c3.604,3.336,5.493,8.006,5.613,13.828v7.781h-39.865
		V232.785z"/>
	<g id="Symbol_6_">
		
			<radialGradient id="SVGID_1_" cx="229.5732" cy="269.4473" r="487.8136" gradientTransform="matrix(0.0092 -0.5952 0.6522 0.0053 130.0774 273.0489)" gradientUnits="userSpaceOnUse">
			<stop  offset="0" style="stop-color:#3663AD"/>
			<stop  offset="0.2557" style="stop-color:#3153A4"/>
			<stop  offset="0.5822" style="stop-color:#293895"/>
			<stop  offset="0.8257" style="stop-color:#232D83"/>
			<stop  offset="1" style="stop-color:#1D2473"/>
		</radialGradient>
		<path fill="url(#SVGID_1_)" d="M554.373,230.796c0,102.208-113.766,185.045-254.09,185.045
			c-140.356,0-254.143-82.837-254.143-185.045c0-102.208,113.786-185.053,254.143-185.053
			C440.606,45.743,554.373,128.587,554.373,230.796z"/>
		<path fill="#F16522" d="M300.283,399.839c-158.775,0-257.341-91.611-253.837-178.045c-0.17,2.997-0.306,5.993-0.306,9.002
			c0,102.208,113.786,185.045,254.143,185.045c140.324,0,254.09-82.837,254.09-185.045c0-3.009-0.105-6.005-0.302-9.002
			C554.177,313.202,459.156,399.839,300.283,399.839z"/>
		<linearGradient id="SVGID_2_" gradientUnits="userSpaceOnUse" x1="300.2661" y1="50.9175" x2="300.2661" y2="293.7974">
			<stop  offset="0" style="stop-color:#E1F3FC"/>
			<stop  offset="0.1341" style="stop-color:#AFC4E2;stop-opacity:0.7946"/>
			<stop  offset="0.3129" style="stop-color:#738CC3;stop-opacity:0.5205"/>
			<stop  offset="0.4653" style="stop-color:#4763AC;stop-opacity:0.2869"/>
			<stop  offset="0.5833" style="stop-color:#2C499E;stop-opacity:0.1061"/>
			<stop  offset="0.6526" style="stop-color:#224099;stop-opacity:0"/>
		</linearGradient>
		<path fill="url(#SVGID_2_)" d="M512.769,173.861c0,66.243-95.154,119.936-212.486,119.936
			c-117.394,0-212.52-53.693-212.52-119.936c0-66.259,95.126-122.944,212.52-122.944
			C417.615,50.917,512.769,107.603,512.769,173.861z"/>
		<linearGradient id="SVGID_3_" gradientUnits="userSpaceOnUse" x1="300.2622" y1="50.3169" x2="300.2622" y2="200.481">
			<stop  offset="0" style="stop-color:#FFFFFF"/>
			<stop  offset="0.0391" style="stop-color:#EFF1F8;stop-opacity:0.94"/>
			<stop  offset="0.2651" style="stop-color:#98A6D0;stop-opacity:0.5938"/>
			<stop  offset="0.4494" style="stop-color:#586FB2;stop-opacity:0.3113"/>
			<stop  offset="0.5831" style="stop-color:#314DA0;stop-opacity:0.1064"/>
			<stop  offset="0.6526" style="stop-color:#224099;stop-opacity:0"/>
		</linearGradient>
		<path fill="url(#SVGID_3_)" d="M425.339,127.288c0,40.417-55.993,73.193-125.056,73.193c-69.113,0-125.097-32.777-125.097-73.193
			c0-40.402,55.984-76.971,125.097-76.971C369.346,50.317,425.339,86.886,425.339,127.288z"/>
		<g>
			<path fill="#FFFFFF" d="M252.387,165.01c-21.02,0-36.879,4.28-47.52,12.777c-10.688,8.521-17.639,22.505-20.89,41.976
				c-2.815,16.88-0.356,28.779,7.338,35.682c7.72,6.904,22.482,10.355,44.262,10.355h83.381l-4.469,26.792h-85.843
				c-18.932,0-33.667-1.016-44.167-3.081c-10.474-2.044-20.053-5.554-28.789-10.409c-11.311-6.285-19.204-14.482-23.695-24.544
				c-4.524-10.073-5.604-22.128-3.245-36.168c4.514-27.19,17.119-47.273,37.776-60.224c20.645-12.924,50.398-19.418,89.271-19.418
				h84.339l-4.376,26.264H252.387z"/>
			<g>
				<path fill="#FFFFFF" d="M456.651,260.017c-4.362-5.698-11.83-10.21-22.393-13.552c11.726-4.072,20.637-9.082,26.796-15.027
					c6.186-5.959,10.007-13.256,11.437-21.819c1.196-7.188,0.177-13.624-3.021-19.271c-3.215-5.658-8.485-10.252-15.771-13.801
					c-4.991-2.447-11.768-4.236-20.32-5.343c-8.551-1.102-19.814-1.676-33.789-1.676H288.945l-15.105,90.39h45.297l-0.021,0.035
					h67.001c10.235,0,17.521,1.473,21.77,4.395c4.239,2.912,5.841,7.539,4.796,13.818c-1.019,6.199-4.126,10.762-9.316,13.652
					c-5.178,2.908-12.925,4.36-23.296,4.36h-66.946l-0.175,0.012h-45.284l-4.396,27.193h118.561c24.742,0,43.528-3.399,56.39-10.225
					c12.853-6.789,20.497-17.378,22.885-31.749C462.552,272.833,461.044,265.69,456.651,260.017z M413.227,228.396
					c-5.288,2.895-13.043,4.342-23.3,4.342h-66.267l5.947-35.601h66.252c10.254,0,17.527,1.446,21.858,4.323
					c4.284,2.847,5.952,7.353,4.93,13.495C421.656,221.03,418.482,225.505,413.227,228.396z"/>
			</g>
		</g>
	</g>
	<g id="Tagline_2_">
		<path fill="#303981" d="M905.818,333.052c-0.492-0.342-1.087-0.679-1.778-1.008c-0.672-0.301-1.384-0.576-2.149-0.835
			c-0.794-0.212-1.622-0.414-2.451-0.543c-0.869-0.134-1.7-0.206-2.531-0.206c-1.58,0-2.901,0.229-3.987,0.669
			c-1.067,0.436-1.915,1.008-2.568,1.678c-0.651,0.679-1.128,1.429-1.42,2.238c-0.282,0.795-0.415,1.552-0.415,2.264
			c0,0.925,0.133,1.754,0.375,2.511c0.256,0.753,0.649,1.466,1.145,2.151c0.537,0.685,1.187,1.376,1.977,2.068
			c0.833,0.689,1.772,1.424,2.86,2.216c1.229,0.876,2.311,1.762,3.26,2.609c0.973,0.886,1.777,1.764,2.449,2.68
			c0.668,0.915,1.187,1.882,1.522,2.897c0.335,1.014,0.534,2.107,0.534,3.292c0,0.729-0.078,1.528-0.238,2.39
			c-0.158,0.892-0.414,1.765-0.793,2.663c-0.39,0.872-0.923,1.744-1.599,2.587c-0.671,0.848-1.52,1.56-2.547,2.251
			c-1.049,0.637-2.29,1.17-3.748,1.554c-1.467,0.397-3.182,0.593-5.14,0.593c-1.107,0-2.194-0.078-3.258-0.229
			c-1.064-0.166-2.077-0.372-3.025-0.623c-0.964-0.255-1.852-0.549-2.622-0.872c-0.808-0.331-1.502-0.652-2.076-0.954l0.849-5.147
			c0.652,0.457,1.368,0.879,2.153,1.29c0.833,0.407,1.678,0.75,2.59,1.055c0.904,0.309,1.854,0.545,2.804,0.729
			c0.967,0.179,1.934,0.236,2.882,0.236c1.5,0,2.784-0.147,3.853-0.501c1.085-0.353,1.958-0.848,2.665-1.469
			c0.714-0.61,1.202-1.341,1.54-2.196c0.337-0.837,0.478-1.765,0.478-2.741c0-0.885-0.12-1.683-0.396-2.392
			c-0.278-0.703-0.712-1.409-1.286-2.079c-0.569-0.677-1.302-1.37-2.171-2.077c-0.866-0.688-1.914-1.46-3.1-2.295
			c-0.991-0.7-1.9-1.439-2.791-2.24c-0.861-0.797-1.633-1.661-2.305-2.609c-0.652-0.948-1.166-1.972-1.541-3.084
			c-0.418-1.121-0.595-2.314-0.595-3.612c0-1.616,0.278-3.15,0.891-4.579c0.609-1.463,1.501-2.726,2.688-3.853
			c1.18-1.057,2.643-1.922,4.382-2.566c1.738-0.638,3.773-0.962,6.083-0.962c0.887,0,1.774,0.06,2.646,0.164
			c0.888,0.111,1.739,0.26,2.568,0.416c0.828,0.212,1.618,0.424,2.354,0.651c0.727,0.195,1.38,0.461,1.972,0.697L905.818,333.052z"
			/>
		<path fill="#303981" d="M936.732,350.006c0,2.64-0.38,5.203-1.146,7.61c-0.754,2.4-1.837,4.5-3.281,6.291
			c-1.424,1.794-3.163,3.233-5.19,4.288c-2.061,1.055-4.349,1.575-6.914,1.575c-1.742,0-3.301-0.317-4.686-0.829
			c-1.401-0.549-2.587-1.343-3.555-2.375c-0.983-1.021-1.717-2.285-2.271-3.753c-0.513-1.458-0.77-3.116-0.77-4.963
			c0-2.782,0.396-5.36,1.202-7.773c0.797-2.414,1.92-4.512,3.381-6.291c1.439-1.778,3.18-3.173,5.194-4.181
			c2.034-1.016,4.264-1.531,6.697-1.531c1.721,0,3.275,0.276,4.661,0.828c1.398,0.558,2.569,1.343,3.553,2.376
			c0.988,1.025,1.757,2.288,2.309,3.752C936.467,346.491,936.732,348.154,936.732,350.006z M931.771,350.244
			c0-1.29-0.154-2.423-0.474-3.42c-0.312-0.993-0.771-1.832-1.359-2.503c-0.552-0.681-1.246-1.199-2.054-1.564
			c-0.793-0.366-1.725-0.542-2.706-0.542c-1.742,0-3.318,0.428-4.727,1.328c-1.38,0.879-2.581,2.039-3.552,3.49
			c-0.972,1.446-1.704,3.092-2.217,4.926c-0.528,1.841-0.788,3.723-0.788,5.657c0,1.207,0.161,2.322,0.459,3.317
			c0.314,0.954,0.728,1.841,1.3,2.542c0.553,0.685,1.246,1.229,2.079,1.604c0.809,0.364,1.734,0.562,2.763,0.562
			c1.735,0,3.339-0.442,4.715-1.312c1.404-0.874,2.591-2.036,3.56-3.484c0.969-1.48,1.718-3.093,2.216-4.947
			C931.494,354.044,931.771,352.162,931.771,350.244z"/>
		<path fill="#303981" d="M951.344,368.919c-0.492,0.121-1.067,0.277-1.678,0.38c-0.611,0.087-1.226,0.143-1.842,0.143
			c-1.992,0-3.495-0.489-4.478-1.487c-0.967-1.021-1.463-2.319-1.463-3.995c0-0.494,0.039-1.073,0.158-1.744
			c0.083-0.671,0.234-1.489,0.453-2.476l7.565-35.476h4.916l-7.603,35.595c-0.177,0.818-0.293,1.458-0.354,1.908
			c-0.08,0.469-0.12,0.85-0.12,1.153c0,0.811,0.217,1.428,0.67,1.845c0.434,0.42,1.152,0.638,2.115,0.638
			c0.513,0,0.967-0.029,1.342-0.099c0.394-0.048,0.75-0.132,1.09-0.257L951.344,368.919z"/>
		<path fill="#303981" d="M982.221,360.44c-0.183,0.779-0.319,1.562-0.48,2.403c-0.155,0.814-0.292,1.615-0.434,2.372
			c-0.137,0.777-0.259,1.503-0.354,2.141c-0.101,0.699-0.18,1.25-0.216,1.684h-4.76c0.115-0.779,0.216-1.579,0.354-2.418
			c0.113-0.82,0.254-1.603,0.356-2.31c0.133-0.826,0.276-1.637,0.393-2.425h-0.116c-0.696,1.082-1.461,2.098-2.293,3.055
			c-0.83,0.958-1.736,1.793-2.729,2.512c-0.965,0.719-2.009,1.282-3.097,1.71c-1.108,0.401-2.235,0.606-3.418,0.606
			c-1.324,0-2.444-0.205-3.418-0.601c-0.982-0.405-1.798-0.975-2.447-1.696c-0.635-0.729-1.128-1.606-1.461-2.639
			c-0.32-1.016-0.476-2.159-0.476-3.418c0-0.255,0.04-0.632,0.098-1.152c0.08-0.503,0.18-1.057,0.276-1.648
			c0.102-0.589,0.199-1.175,0.337-1.77c0.141-0.575,0.238-1.066,0.317-1.482l3.517-16.551h4.914l-3.77,17.705
			c-0.081,0.316-0.16,0.679-0.218,1.098c-0.101,0.411-0.158,0.823-0.238,1.242c-0.058,0.403-0.136,0.784-0.158,1.129
			c-0.039,0.346-0.058,0.608-0.058,0.807c0,1.479,0.354,2.661,1.064,3.535c0.735,0.869,1.818,1.312,3.261,1.312
			c0.847,0,1.737-0.175,2.582-0.532c0.874-0.354,1.726-0.837,2.534-1.426c0.827-0.614,1.6-1.297,2.33-2.099
			c0.731-0.799,1.399-1.646,1.974-2.544c0.595-0.887,1.109-1.812,1.521-2.748c0.414-0.954,0.71-1.851,0.909-2.725l3.178-14.754
			h4.876L982.221,360.44z"/>
		<path fill="#303981" d="M1008.938,342.914h-7.626l-3.398,16.033c-0.114,0.594-0.247,1.269-0.375,1.962
			c-0.101,0.713-0.178,1.287-0.178,1.719c0,1.004,0.221,1.732,0.676,2.178c0.437,0.431,1.141,0.66,2.115,0.66
			c0.234,0,0.529-0.041,0.909-0.13c0.37-0.08,0.771-0.164,1.16-0.289c0.396-0.113,0.791-0.241,1.169-0.397
			c0.371-0.15,0.728-0.289,1.025-0.398l-0.928,4.244c-0.693,0.307-1.479,0.545-2.35,0.762c-0.871,0.196-1.719,0.309-2.487,0.309
			c-1.126,0-2.097-0.146-2.892-0.424c-0.785-0.288-1.438-0.701-1.932-1.23c-0.495-0.555-0.871-1.176-1.085-1.934
			c-0.22-0.762-0.339-1.617-0.339-2.551c0-0.574,0.06-1.23,0.162-1.991c0.095-0.759,0.232-1.46,0.391-2.082l3.499-16.439h-5.037
			l0.93-4.101h4.952l1.565-7.376c0.098-0.04,0.396-0.13,0.909-0.288c0.531-0.141,1.104-0.302,1.735-0.494
			c0.614-0.195,1.183-0.355,1.718-0.518c0.494-0.189,0.794-0.249,0.848-0.266l-1.854,8.941h7.627L1008.938,342.914z"/>
		<path fill="#303981" d="M1020.416,368.919c-0.493,0.121-1.051,0.277-1.676,0.38c-0.615,0.087-1.23,0.143-1.841,0.143
			c-1.995,0-3.494-0.489-4.465-1.487c-0.989-1.021-1.479-2.319-1.479-3.995c0-0.494,0.034-1.073,0.134-1.744
			c0.101-0.671,0.26-1.489,0.497-2.476l4.408-20.926h4.895l-4.423,21.045c-0.178,0.818-0.317,1.458-0.379,1.908
			c-0.078,0.469-0.093,0.85-0.093,1.153c0,0.811,0.209,1.428,0.648,1.845c0.454,0.42,1.166,0.638,2.111,0.638
			c0.515,0,0.967-0.029,1.343-0.099c0.396-0.048,0.731-0.132,1.088-0.257L1020.416,368.919z M1023.868,328.038
			c0,0.886-0.296,1.649-0.886,2.276c-0.613,0.629-1.343,0.943-2.255,0.943c-0.865,0-1.617-0.314-2.251-0.923
			c-0.625-0.621-0.967-1.391-0.967-2.297c0-0.897,0.342-1.635,0.967-2.209c0.634-0.565,1.386-0.842,2.251-0.842
			c0.89,0,1.622,0.28,2.236,0.854C1023.555,326.424,1023.868,327.161,1023.868,328.038z"/>
		<path fill="#303981" d="M1053.91,350.006c0,2.64-0.395,5.203-1.145,7.61c-0.768,2.4-1.853,4.5-3.296,6.291
			c-1.425,1.794-3.163,3.233-5.197,4.288c-2.054,1.055-4.34,1.575-6.909,1.575c-1.742,0-3.301-0.317-4.683-0.829
			c-1.403-0.549-2.589-1.343-3.56-2.375c-0.969-1.021-1.716-2.285-2.229-3.753c-0.549-1.458-0.787-3.116-0.787-4.963
			c0-2.782,0.393-5.36,1.185-7.773c0.789-2.414,1.914-4.512,3.379-6.291c1.439-1.778,3.175-3.173,5.191-4.181
			c2.034-1.016,4.264-1.531,6.696-1.531c1.736,0,3.276,0.276,4.658,0.828c1.403,0.558,2.592,1.343,3.576,2.376
			c0.987,1.025,1.739,2.288,2.291,3.752C1053.614,346.491,1053.91,348.154,1053.91,350.006z M1048.933,350.244
			c0-1.29-0.155-2.423-0.474-3.42c-0.313-0.993-0.771-1.832-1.34-2.503c-0.552-0.681-1.263-1.199-2.054-1.564
			c-0.809-0.366-1.739-0.542-2.726-0.542c-1.74,0-3.319,0.428-4.701,1.328c-1.407,0.879-2.591,2.039-3.554,3.49
			c-0.972,1.446-1.726,3.092-2.235,4.926c-0.511,1.841-0.792,3.723-0.792,5.657c0,1.207,0.16,2.322,0.472,3.317
			c0.298,0.954,0.717,1.841,1.288,2.542c0.57,0.685,1.268,1.229,2.074,1.604c0.81,0.364,1.737,0.562,2.764,0.562
			c1.758,0,3.341-0.442,4.74-1.312c1.404-0.874,2.59-2.036,3.556-3.484c0.967-1.48,1.699-3.093,2.209-4.947
			C1048.68,354.044,1048.933,352.162,1048.933,350.244z"/>
		<path fill="#303981" d="M1087.142,346.343c0,0.318-0.04,0.729-0.097,1.231c-0.066,0.51-0.16,1.074-0.278,1.653
			c-0.097,0.595-0.194,1.181-0.317,1.747c-0.097,0.587-0.216,1.095-0.315,1.496l-3.513,16.569h-4.898l3.689-17.712
			c0.08-0.313,0.161-0.685,0.221-1.084c0.098-0.422,0.159-0.841,0.217-1.253c0.06-0.411,0.119-0.792,0.141-1.131
			c0.036-0.342,0.058-0.615,0.058-0.812c0-1.496-0.334-2.677-1.067-3.542c-0.731-0.869-1.795-1.292-3.203-1.292
			c-1.302,0-2.604,0.342-3.886,1.145c-1.288,0.767-2.474,1.723-3.546,2.924c-1.086,1.185-2.015,2.474-2.785,3.891
			c-0.794,1.417-1.308,2.784-1.584,4.099l-3.176,14.768h-4.915l4.673-21.572c0.157-0.773,0.319-1.566,0.477-2.416
			c0.158-0.836,0.315-1.644,0.452-2.414c0.145-0.782,0.264-1.507,0.36-2.187c0.077-0.648,0.178-1.216,0.216-1.638h4.741
			c-0.101,0.77-0.217,1.569-0.336,2.406c-0.153,0.838-0.273,1.604-0.373,2.323c-0.103,0.821-0.243,1.63-0.378,2.413h0.121
			c0.688-1.081,1.441-2.1,2.289-3.06c0.829-0.956,1.748-1.785,2.735-2.507c0.968-0.716,1.995-1.28,3.101-1.695
			c1.089-0.401,2.233-0.62,3.433-0.62c1.347,0,2.494,0.213,3.459,0.614c0.967,0.401,1.779,0.967,2.416,1.694
			c0.646,0.718,1.123,1.598,1.415,2.62C1087.005,344.029,1087.142,345.154,1087.142,346.343z"/>
		<path fill="#303981" d="M1111.71,344.126c-0.907-0.56-1.892-1.036-3-1.389c-1.107-0.347-2.211-0.522-3.298-0.522
			c-1.856,0-3.297,0.423-4.324,1.271c-1.007,0.835-1.521,1.962-1.521,3.348c0,0.582,0.101,1.103,0.294,1.576
			c0.18,0.454,0.456,0.916,0.812,1.34c0.375,0.424,0.826,0.821,1.4,1.225c0.556,0.391,1.205,0.813,1.952,1.252
			c2.176,1.297,3.779,2.605,4.763,3.944c0.967,1.349,1.465,2.877,1.465,4.573c0,1.134-0.224,2.259-0.632,3.349
			c-0.435,1.084-1.113,2.053-2.019,2.889c-0.945,0.837-2.153,1.506-3.612,2.02c-1.463,0.521-3.256,0.77-5.355,0.77
			c-0.61,0-1.259-0.043-1.951-0.121c-0.71-0.074-1.442-0.196-2.155-0.351c-0.71-0.157-1.402-0.347-2.069-0.575
			c-0.656-0.229-1.227-0.5-1.721-0.775l0.971-4.606c0.393,0.271,0.865,0.543,1.46,0.818c0.59,0.251,1.201,0.528,1.896,0.74
			c0.674,0.216,1.381,0.396,2.129,0.532c0.755,0.135,1.464,0.208,2.214,0.208c1.959,0,3.436-0.396,4.403-1.182
			c0.988-0.786,1.462-1.882,1.462-3.269c0-0.537-0.058-0.985-0.213-1.429c-0.141-0.437-0.398-0.86-0.771-1.292
			c-0.379-0.434-0.867-0.863-1.487-1.31c-0.608-0.446-1.398-0.948-2.306-1.497c-2.015-1.211-3.499-2.49-4.469-3.862
			c-0.94-1.294-1.418-2.786-1.418-4.448c0-1.228,0.214-2.402,0.671-3.531c0.459-1.084,1.145-2.11,2.035-2.938
			c0.887-0.844,2.009-1.524,3.394-2.036c1.35-0.514,2.929-0.772,4.741-0.772c1.426,0,2.771,0.142,4.052,0.417
			c1.282,0.275,2.351,0.627,3.22,1.062L1111.71,344.126z"/>
		<path fill="#303981" d="M1164.15,335.84c0,1.343-0.174,2.612-0.571,3.815c-0.378,1.213-0.945,2.315-1.737,3.288
			c-0.77,0.989-1.775,1.84-2.98,2.55c-1.209,0.72-2.652,1.244-4.33,1.556v0.121c1.228,0.192,2.291,0.553,3.204,1.075
			c0.905,0.521,1.697,1.149,2.311,1.88c0.604,0.769,1.066,1.604,1.359,2.521c0.319,0.957,0.476,1.952,0.476,3.018
			c0,2.188-0.418,4.104-1.204,5.772c-0.812,1.662-1.916,3.054-3.339,4.179c-1.424,1.121-3.102,1.97-5.037,2.55
			c-1.936,0.578-4.053,0.876-6.318,0.876h-12.959l8.965-42.325h11.697c1.678,0,3.178,0.239,4.48,0.712
			c1.305,0.471,2.391,1.123,3.277,1.941c0.891,0.835,1.583,1.804,2.038,2.903C1163.915,333.389,1164.15,334.569,1164.15,335.84z
			 M1156.626,355.996c0-2.085-0.712-3.706-2.15-4.895c-1.446-1.183-3.637-1.775-6.639-1.775h-5.59l-3.158,15.224h6.835
			c1.855,0,3.453-0.202,4.799-0.604c1.343-0.413,2.449-0.985,3.316-1.731c0.891-0.75,1.521-1.655,1.955-2.707
			C1156.408,358.462,1156.626,357.268,1156.626,355.996z M1158.964,336.805c0-0.747-0.142-1.446-0.381-2.12
			c-0.241-0.666-0.612-1.269-1.147-1.802c-0.511-0.502-1.182-0.913-2.03-1.259c-0.833-0.267-1.857-0.421-3.062-0.421h-6.184
			l-2.943,13.663h5.55c1.703,0,3.178-0.21,4.444-0.629c1.266-0.36,2.329-0.909,3.177-1.61c0.834-0.706,1.465-1.565,1.88-2.544
			c0.411-0.985,0.612-2.077,0.612-3.278H1158.964z"/>
		<path fill="#303981" d="M1193.896,345.901c0,1.596-0.335,3.043-1.042,4.343c-0.714,1.308-1.902,2.401-3.539,3.366
			c-1.642,0.938-3.792,1.653-6.479,2.17c-2.689,0.521-6.004,0.783-9.932,0.798c-0.044,0.218-0.062,0.444-0.062,0.679
			c0,0.216,0,0.413,0,0.594c0,1.065,0.159,2.069,0.455,3.003c0.275,0.946,0.746,1.774,1.36,2.488
			c0.63,0.701,1.426,1.257,2.392,1.678c0.989,0.413,2.132,0.621,3.499,0.621c1.343,0,2.843-0.268,4.48-0.806
			c1.619-0.494,3.159-1.251,4.644-2.207l-0.913,4.775c-1.086,0.633-2.366,1.195-3.87,1.637c-1.498,0.502-3.177,0.73-5.033,0.73
			c-2.232,0-4.107-0.344-5.631-1.034c-1.539-0.681-2.762-1.604-3.715-2.759c-0.928-1.143-1.598-2.483-2.027-3.982
			c-0.4-1.506-0.597-3.079-0.597-4.738c0-1.759,0.177-3.478,0.571-5.112c0.393-1.658,0.965-3.18,1.681-4.591
			c0.726-1.416,1.577-2.712,2.585-3.883c1.008-1.174,2.119-2.18,3.36-3c1.2-0.822,2.529-1.48,3.906-1.923
			c1.406-0.439,2.847-0.674,4.372-0.674c1.556,0,2.939,0.219,4.121,0.62c1.189,0.415,2.177,0.979,2.985,1.695
			c0.812,0.722,1.402,1.551,1.817,2.496C1193.696,343.821,1193.896,344.835,1193.896,345.901z M1188.959,346.138
			c0-1.24-0.454-2.205-1.367-2.886c-0.905-0.704-2.13-1.037-3.653-1.037c-1.2,0-2.366,0.256-3.491,0.757
			c-1.125,0.545-2.153,1.266-3.104,2.17c-0.943,0.913-1.759,2.009-2.447,3.28c-0.715,1.267-1.203,2.639-1.519,4.106
			c2.818,0,5.215-0.125,7.186-0.421c1.976-0.307,3.577-0.723,4.818-1.25c1.245-0.552,2.153-1.223,2.731-2.021
			C1188.683,348.017,1188.959,347.131,1188.959,346.138z"/>
		<path fill="#303981" d="M1205.908,374.052c-0.891,1.48-1.822,2.783-2.729,3.901c-0.948,1.134-1.916,2.088-2.939,2.88
			c-0.995,0.787-2.096,1.379-3.243,1.787c-1.145,0.406-2.409,0.606-3.791,0.606c-0.458,0-0.967-0.042-1.524-0.136
			c-0.57-0.087-1.022-0.178-1.358-0.274l0.924-4.279c0.276,0.159,0.674,0.276,1.147,0.385c0.476,0.097,0.954,0.134,1.385,0.134
			c1.381,0,2.605-0.359,3.693-1.123c1.086-0.736,2.111-1.875,3.077-3.436l3.654-5.578l-5.508-30.105h5.036l3.52,23.189
			c0.073,0.438,0.099,0.861,0.099,1.254c0.018,0.416,0,0.741-0.025,1.056h0.161c0.1-0.241,0.258-0.572,0.451-1.003
			c0.221-0.435,0.459-0.85,0.692-1.245l13.436-23.251h5.348L1205.908,374.052z"/>
		<path fill="#303981" d="M1254.907,350.006c0,2.64-0.373,5.203-1.144,7.61c-0.753,2.4-1.855,4.5-3.281,6.291
			c-1.416,1.794-3.16,3.233-5.214,4.288c-2.03,1.055-4.341,1.575-6.91,1.575c-1.722,0-3.301-0.317-4.683-0.829
			c-1.382-0.549-2.564-1.343-3.557-2.375c-0.967-1.021-1.717-2.285-2.247-3.753c-0.519-1.458-0.775-3.116-0.775-4.963
			c0-2.782,0.396-5.36,1.19-7.773c0.809-2.414,1.935-4.512,3.375-6.291c1.439-1.778,3.175-3.173,5.212-4.181
			c2.037-1.016,4.248-1.531,6.695-1.531c1.718,0,3.278,0.276,4.665,0.828c1.379,0.558,2.565,1.343,3.55,2.376
			c1.011,1.025,1.764,2.288,2.294,3.752C1254.63,346.491,1254.907,348.154,1254.907,350.006z M1249.93,350.244
			c0-1.29-0.158-2.423-0.471-3.42c-0.318-0.993-0.755-1.832-1.326-2.503c-0.573-0.681-1.267-1.199-2.077-1.564
			c-0.831-0.366-1.713-0.542-2.721-0.542c-1.736,0-3.299,0.428-4.699,1.328c-1.399,0.879-2.571,2.039-3.556,3.49
			c-0.976,1.446-1.7,3.092-2.235,4.926c-0.511,1.841-0.767,3.723-0.767,5.657c0,1.207,0.136,2.322,0.45,3.317
			c0.297,0.954,0.733,1.841,1.284,2.542c0.574,0.685,1.268,1.229,2.078,1.604c0.83,0.364,1.735,0.562,2.777,0.562
			c1.741,0,3.326-0.442,4.727-1.312c1.404-0.874,2.587-2.036,3.539-3.484c0.979-1.48,1.713-3.093,2.228-4.947
			C1249.678,354.044,1249.93,352.162,1249.93,350.244z"/>
		<path fill="#303981" d="M1288.152,346.343c0,0.318-0.022,0.729-0.101,1.231c-0.083,0.51-0.16,1.074-0.276,1.653
			c-0.104,0.595-0.219,1.181-0.314,1.747c-0.12,0.587-0.22,1.095-0.296,1.496l-3.536,16.569h-4.902l3.689-17.712
			c0.085-0.313,0.143-0.685,0.221-1.084c0.084-0.422,0.16-0.841,0.221-1.253c0.055-0.411,0.116-0.792,0.159-1.131
			c0.017-0.342,0.038-0.615,0.038-0.812c0-1.496-0.356-2.677-1.089-3.542c-0.688-0.869-1.777-1.292-3.199-1.292
			c-1.281,0-2.59,0.342-3.868,1.145c-1.286,0.767-2.452,1.723-3.556,2.924c-1.089,1.185-2.013,2.474-2.784,3.891
			c-0.79,1.417-1.305,2.784-1.603,4.099l-3.138,14.768h-4.922l4.679-21.572c0.16-0.773,0.3-1.566,0.46-2.416
			c0.177-0.836,0.312-1.644,0.453-2.414c0.138-0.782,0.254-1.507,0.354-2.187c0.102-0.648,0.201-1.216,0.234-1.638h4.727
			c-0.08,0.77-0.198,1.569-0.343,2.406c-0.154,0.838-0.273,1.604-0.35,2.323c-0.116,0.821-0.258,1.63-0.396,2.413h0.119
			c0.688-1.081,1.463-2.1,2.294-3.06c0.847-0.956,1.738-1.785,2.723-2.507c0.964-0.716,2.012-1.28,3.103-1.695
			c1.086-0.401,2.248-0.62,3.456-0.62c1.341,0,2.485,0.213,3.459,0.614c0.968,0.401,1.756,0.967,2.405,1.694
			c0.649,0.718,1.127,1.598,1.419,2.62C1288.013,344.029,1288.152,345.154,1288.152,346.343z"/>
		<path fill="#303981" d="M1317.913,359.739c-0.139,0.623-0.278,1.395-0.415,2.264c-0.119,0.889-0.22,1.777-0.335,2.686
			c-0.099,0.885-0.179,1.73-0.231,2.521c-0.087,0.775-0.127,1.396-0.127,1.83h-5.018c0-0.346,0.022-0.787,0.083-1.354
			c0.039-0.554,0.099-1.169,0.158-1.759c0.077-0.611,0.159-1.191,0.236-1.754c0.078-0.552,0.14-1.024,0.197-1.368h-0.119
			c-0.692,1.142-1.421,2.146-2.112,3.023c-0.713,0.876-1.459,1.608-2.249,2.188c-0.797,0.582-1.619,1.023-2.532,1.32
			c-0.888,0.283-1.854,0.434-2.921,0.434c-1.386,0-2.63-0.238-3.72-0.73c-1.1-0.5-2.066-1.222-2.818-2.171
			c-0.79-0.963-1.385-2.146-1.8-3.55c-0.409-1.432-0.634-3.029-0.634-4.85c0-1.447,0.167-2.963,0.463-4.559
			c0.312-1.56,0.788-3.104,1.439-4.634c0.629-1.497,1.44-2.935,2.431-4.296c0.98-1.359,2.17-2.551,3.514-3.566
			c1.362-1.025,2.924-1.84,4.682-2.442c1.735-0.607,3.708-0.898,5.884-0.898c1.107,0,2.132,0.08,3.083,0.234
			c0.925,0.144,1.753,0.291,2.446,0.439l3.084-14.451h4.776L1317.913,359.739z M1316.631,342.914
			c-0.734-0.22-1.543-0.384-2.353-0.514c-0.809-0.125-1.679-0.186-2.606-0.186c-1.718,0-3.236,0.256-4.541,0.788
			c-1.306,0.54-2.472,1.234-3.439,2.131c-0.969,0.878-1.794,1.89-2.447,3.021c-0.654,1.123-1.185,2.285-1.604,3.486
			c-0.388,1.183-0.689,2.356-0.846,3.509c-0.175,1.152-0.26,2.189-0.26,3.115c0,1.1,0.104,2.098,0.273,3.002
			c0.184,0.909,0.501,1.682,0.938,2.317c0.393,0.667,0.964,1.171,1.619,1.524c0.67,0.357,1.479,0.532,2.425,0.532
			c0.988,0,1.914-0.208,2.785-0.621c0.852-0.421,1.641-0.977,2.388-1.678c0.757-0.714,1.444-1.534,2.056-2.46
			c0.612-0.917,1.168-1.929,1.66-2.942c0.474-1.047,0.906-2.098,1.244-3.193c0.354-1.056,0.634-2.101,0.848-3.069L1316.631,342.914z
			"/>
		<path fill="#303981" d="M1372.426,331.203h-16.353l-3.085,14.43h15.153l-0.989,4.485h-15.131l-3.104,14.432h17.387l-0.887,4.49
			h-22.476l8.962-42.325h21.491L1372.426,331.203z"/>
		<path fill="#303981" d="M1387.515,354.272l6.994,14.768l-5.371,0.052l-3.813-9.47c-0.119-0.317-0.277-0.738-0.493-1.273
			c-0.198-0.528-0.398-1.022-0.572-1.502h-0.142c-0.138,0.221-0.297,0.421-0.491,0.693c-0.177,0.242-0.372,0.487-0.552,0.725
			c-0.18,0.232-0.356,0.456-0.516,0.66c-0.176,0.205-0.317,0.38-0.434,0.551l-7.921,9.564h-5.769l13.632-15.054l-6.796-15.173h5.353
			l3.635,9.616c0.174,0.476,0.352,0.987,0.532,1.549c0.18,0.539,0.313,0.973,0.414,1.292h0.119c0.119-0.141,0.257-0.307,0.411-0.522
			c0.164-0.208,0.317-0.429,0.495-0.662c0.176-0.236,0.358-0.461,0.559-0.712c0.174-0.234,0.372-0.451,0.55-0.647l8.221-9.913h5.53
			L1387.515,354.272z"/>
		<path fill="#303981" d="M1429.073,349.374c0,1.462-0.157,2.967-0.476,4.537c-0.313,1.564-0.789,3.111-1.438,4.614
			c-0.649,1.512-1.466,2.949-2.446,4.318c-0.971,1.347-2.118,2.538-3.442,3.575c-1.324,1.035-2.827,1.854-4.502,2.451
			c-1.679,0.583-3.533,0.9-5.551,0.9c-1.161,0-2.33-0.109-3.456-0.329c-1.144-0.214-2.131-0.472-2.982-0.765l-3.001,14.374h-4.916
			l7.406-34.945c0.116-0.615,0.254-1.381,0.37-2.265c0.119-0.891,0.219-1.772,0.318-2.68c0.077-0.886,0.154-1.729,0.219-2.513
			c0.062-0.8,0.076-1.413,0.076-1.835h4.979c0,0.336-0.019,0.792-0.08,1.364c-0.032,0.571-0.094,1.159-0.177,1.782
			c-0.102,0.597-0.159,1.218-0.237,1.792c-0.077,0.59-0.139,1.053-0.215,1.412h0.115c1.405-2.392,2.981-4.16,4.74-5.33
			c1.761-1.175,3.654-1.76,5.73-1.76c1.402,0,2.623,0.24,3.728,0.7c1.094,0.483,2.039,1.185,2.829,2.108
			c0.787,0.965,1.385,2.147,1.797,3.568C1428.856,345.868,1429.073,347.505,1429.073,349.374z M1424.114,349.58
			c0-1.058-0.095-2.034-0.292-2.953c-0.177-0.897-0.494-1.677-0.935-2.32c-0.427-0.653-0.984-1.164-1.656-1.534
			c-0.689-0.382-1.539-0.558-2.507-0.558c-1.027,0-1.994,0.196-2.886,0.63c-0.888,0.424-1.735,0.977-2.51,1.694
			c-0.751,0.712-1.458,1.526-2.089,2.462c-0.633,0.936-1.184,1.904-1.678,2.91c-0.502,1.004-0.913,2.02-1.267,3.019
			c-0.356,1.016-0.613,1.973-0.786,2.851l-1.861,8.77c0.356,0.155,0.793,0.285,1.285,0.423c0.492,0.136,0.986,0.243,1.521,0.331
			c0.532,0.109,1.083,0.189,1.639,0.248c0.534,0.062,1.045,0.089,1.543,0.089c1.34,0,2.601-0.228,3.77-0.679
			c1.147-0.45,2.176-1.064,3.103-1.856c0.906-0.792,1.719-1.683,2.428-2.737c0.692-1.051,1.284-2.174,1.76-3.367
			c0.473-1.183,0.831-2.416,1.065-3.685C1423.999,352.047,1424.114,350.808,1424.114,349.58z"/>
		<path fill="#303981" d="M1459.723,345.901c0,1.596-0.352,3.043-1.062,4.343c-0.729,1.308-1.898,2.401-3.532,3.366
			c-1.627,0.938-3.776,1.653-6.463,2.17c-2.684,0.521-6.004,0.783-9.954,0.798c-0.044,0.218-0.061,0.444-0.061,0.679
			c0,0.216,0,0.413,0,0.594c0,1.065,0.158,2.069,0.457,3.003c0.275,0.946,0.748,1.774,1.359,2.488
			c0.633,0.701,1.427,1.257,2.414,1.678c0.967,0.413,2.13,0.621,3.452,0.621c1.385,0,2.863-0.268,4.485-0.806
			c1.637-0.494,3.197-1.251,4.66-2.207l-0.909,4.775c-1.086,0.633-2.388,1.195-3.893,1.637c-1.48,0.502-3.159,0.73-5.018,0.73
			c-2.23,0-4.105-0.344-5.623-1.034c-1.521-0.681-2.767-1.604-3.717-2.759c-0.908-1.143-1.602-2.483-2.012-3.982
			c-0.397-1.506-0.61-3.079-0.61-4.738c0-1.759,0.172-3.478,0.587-5.112c0.397-1.658,0.949-3.18,1.661-4.591
			c0.731-1.416,1.574-2.712,2.589-3.883c1.007-1.174,2.134-2.18,3.337-3c1.224-0.822,2.528-1.48,3.946-1.923
			c1.404-0.439,2.848-0.674,4.35-0.674c1.557,0,2.924,0.219,4.106,0.62c1.205,0.415,2.214,0.979,3.001,1.695
			c0.791,0.722,1.404,1.551,1.819,2.496C1459.512,343.821,1459.723,344.835,1459.723,345.901z M1454.769,346.138
			c0-1.24-0.452-2.205-1.364-2.886c-0.906-0.704-2.131-1.037-3.671-1.037c-1.184,0-2.35,0.256-3.475,0.757
			c-1.106,0.545-2.175,1.266-3.102,2.17c-0.95,0.913-1.779,2.009-2.446,3.28c-0.697,1.267-1.21,2.639-1.522,4.106
			c2.824,0,5.212-0.125,7.187-0.421c1.976-0.307,3.577-0.723,4.821-1.25c1.245-0.552,2.149-1.223,2.725-2.021
			C1454.495,348.017,1454.769,347.131,1454.769,346.138z"/>
		<path fill="#303981" d="M1486.434,344.805c-0.834-0.726-1.842-1.341-3.009-1.839c-1.184-0.506-2.465-0.751-3.884-0.751
			c-1.368,0-2.592,0.241-3.674,0.699c-1.107,0.472-2.078,1.104-2.927,1.891c-0.853,0.79-1.558,1.694-2.192,2.714
			c-0.616,1.021-1.104,2.082-1.5,3.198c-0.398,1.084-0.693,2.187-0.891,3.28c-0.178,1.09-0.26,2.11-0.26,3.054
			c0,2.817,0.616,4.952,1.86,6.404c1.237,1.458,2.944,2.186,5.077,2.186c1.306,0,2.668-0.274,4.047-0.806
			c1.421-0.554,2.749-1.251,3.97-2.102l-1.026,4.851c-1.285,0.689-2.551,1.229-3.833,1.612c-1.261,0.385-2.607,0.574-4.046,0.574
			c-1.854,0-3.459-0.317-4.84-0.939c-1.364-0.636-2.508-1.496-3.4-2.598c-0.907-1.107-1.598-2.414-2.052-3.92
			c-0.458-1.514-0.671-3.124-0.671-4.889c0-1.645,0.158-3.27,0.512-4.877c0.313-1.597,0.81-3.116,1.48-4.539
			c0.675-1.43,1.46-2.75,2.431-3.97c0.988-1.225,2.094-2.269,3.342-3.156c1.243-0.866,2.644-1.547,4.182-2.049
			c1.541-0.514,3.201-0.76,5.001-0.76c0.848,0,1.66,0.049,2.432,0.182c0.768,0.109,1.462,0.276,2.089,0.472
			c0.631,0.195,1.189,0.411,1.681,0.631c0.51,0.225,0.908,0.455,1.183,0.667L1486.434,344.805z"/>
		<path fill="#303981" d="M1507.702,342.914h-7.646l-3.372,16.033c-0.122,0.594-0.26,1.269-0.36,1.962
			c-0.117,0.713-0.198,1.287-0.198,1.719c0,1.004,0.221,1.732,0.669,2.178c0.456,0.431,1.148,0.66,2.119,0.66
			c0.23,0,0.534-0.041,0.906-0.13c0.396-0.08,0.771-0.164,1.164-0.289c0.396-0.113,0.791-0.241,1.168-0.397
			c0.393-0.15,0.732-0.289,1.03-0.398l-0.929,4.244c-0.696,0.307-1.468,0.545-2.354,0.762c-0.869,0.196-1.694,0.309-2.487,0.309
			c-1.132,0-2.074-0.146-2.885-0.424c-0.79-0.288-1.424-0.701-1.932-1.23c-0.496-0.555-0.871-1.176-1.091-1.934
			c-0.219-0.762-0.336-1.617-0.336-2.551c0-0.574,0.059-1.23,0.159-1.991c0.115-0.759,0.233-1.46,0.396-2.082l3.495-16.439h-5.036
			l0.929-4.101h4.955l1.559-7.376c0.101-0.04,0.414-0.13,0.935-0.288c0.509-0.141,1.082-0.302,1.717-0.494
			c0.608-0.195,1.18-0.355,1.695-0.518c0.531-0.189,0.812-0.249,0.893-0.266l-1.881,8.941h7.644L1507.702,342.914z"/>
		<path fill="#303981" d="M1533.359,359.354c-0.159,0.754-0.316,1.586-0.457,2.524c-0.161,0.936-0.296,1.853-0.395,2.771
			c-0.097,0.918-0.199,1.77-0.256,2.561c-0.079,0.775-0.115,1.396-0.115,1.83h-5.036c0.016-0.415,0.062-0.867,0.093-1.416
			c0.042-0.554,0.102-1.128,0.161-1.718c0.08-0.603,0.136-1.171,0.219-1.746c0.058-0.576,0.136-1.062,0.218-1.473h-0.124
			c-0.61,0.963-1.244,1.88-1.857,2.726c-0.631,0.857-1.321,1.607-2.106,2.266c-0.774,0.652-1.645,1.152-2.573,1.528
			c-0.946,0.374-2.052,0.563-3.334,0.563c-1.324,0-2.55-0.229-3.638-0.73c-1.086-0.441-2.016-1.149-2.82-2.107
			c-0.791-0.92-1.402-2.098-1.817-3.496c-0.415-1.402-0.633-3.037-0.633-4.911c0-1.144,0.119-2.44,0.353-3.887
			c0.239-1.456,0.632-2.947,1.189-4.465c0.569-1.516,1.322-2.992,2.248-4.444c0.951-1.435,2.094-2.758,3.5-3.882
			c1.397-1.13,3.02-2.045,4.932-2.738c1.878-0.688,4.069-1.035,6.558-1.035c1.584,0,3.204,0.117,4.882,0.357
			c1.675,0.238,3.361,0.518,4.996,0.845L1533.359,359.354z M1531.953,342.797c-0.687-0.159-1.503-0.3-2.428-0.406
			c-0.928-0.128-1.778-0.176-2.61-0.176c-1.711,0-3.212,0.264-4.536,0.809c-1.303,0.543-2.449,1.214-3.4,2.118
			c-0.986,0.87-1.79,1.882-2.449,3.035c-0.643,1.101-1.181,2.302-1.58,3.492c-0.395,1.192-0.669,2.354-0.845,3.498
			c-0.162,1.185-0.264,2.237-0.264,3.182c0,1.127,0.118,2.128,0.317,3.027c0.202,0.896,0.499,1.664,0.912,2.282
			c0.435,0.632,0.971,1.115,1.638,1.458c0.667,0.35,1.442,0.524,2.352,0.524c0.989,0,1.891-0.208,2.764-0.612
			c0.869-0.401,1.661-0.944,2.405-1.633c0.757-0.688,1.43-1.508,2.057-2.381c0.614-0.907,1.149-1.875,1.642-2.878
			c0.493-1.026,0.925-2.052,1.263-3.113c0.356-1.047,0.613-2.065,0.849-3.046L1531.953,342.797z"/>
		<path fill="#303981" d="M1559.825,342.914h-7.624l-3.413,16.033c-0.119,0.594-0.238,1.269-0.34,1.962
			c-0.142,0.713-0.202,1.287-0.202,1.719c0,1.004,0.222,1.732,0.677,2.178c0.435,0.431,1.145,0.66,2.112,0.66
			c0.237,0,0.533-0.041,0.926-0.13c0.359-0.08,0.751-0.164,1.147-0.289c0.376-0.113,0.771-0.241,1.166-0.397
			c0.379-0.15,0.707-0.289,1.025-0.398l-0.923,4.244c-0.693,0.307-1.488,0.545-2.353,0.762c-0.871,0.196-1.722,0.309-2.511,0.309
			c-1.107,0-2.075-0.146-2.84-0.424c-0.812-0.288-1.447-0.701-1.936-1.23c-0.517-0.555-0.891-1.176-1.108-1.934
			c-0.237-0.762-0.353-1.617-0.353-2.551c0-0.574,0.057-1.23,0.176-1.991c0.097-0.759,0.234-1.46,0.395-2.082l3.492-16.439h-5.033
			l0.926-4.101h4.957l1.58-7.376c0.083-0.04,0.378-0.13,0.895-0.288c0.512-0.141,1.082-0.302,1.713-0.494
			c0.617-0.195,1.187-0.355,1.721-0.518c0.534-0.189,0.829-0.249,0.868-0.266l-1.857,8.941h7.623L1559.825,342.914z"/>
		<path fill="#303981" d="M1571.298,368.919c-0.494,0.121-1.042,0.277-1.657,0.38c-0.631,0.087-1.244,0.143-1.857,0.143
			c-1.994,0-3.475-0.489-4.465-1.487c-0.986-1.021-1.48-2.319-1.48-3.995c0-0.494,0.037-1.073,0.138-1.744
			c0.102-0.671,0.256-1.489,0.48-2.476l4.397-20.926h4.921l-4.445,21.045c-0.155,0.818-0.271,1.458-0.357,1.908
			c-0.075,0.469-0.118,0.85-0.118,1.153c0,0.811,0.241,1.428,0.693,1.845c0.415,0.42,1.125,0.638,2.094,0.638
			c0.532,0,0.969-0.029,1.346-0.099c0.393-0.048,0.748-0.132,1.102-0.257L1571.298,368.919z M1574.76,328.038
			c0,0.886-0.303,1.649-0.895,2.276c-0.609,0.629-1.358,0.943-2.246,0.943c-0.852,0-1.623-0.314-2.252-0.923
			c-0.638-0.621-0.948-1.391-0.948-2.297c0-0.897,0.311-1.635,0.948-2.209c0.629-0.565,1.4-0.842,2.252-0.842
			c0.888,0,1.611,0.28,2.233,0.854C1574.457,326.424,1574.76,327.161,1574.76,328.038z"/>
		<path fill="#303981" d="M1604.775,350.006c0,2.64-0.371,5.203-1.12,7.61c-0.774,2.4-1.88,4.5-3.283,6.291
			c-1.438,1.794-3.179,3.233-5.213,4.288s-4.347,1.575-6.915,1.575c-1.738,0-3.293-0.317-4.679-0.829
			c-1.385-0.549-2.567-1.343-3.558-2.375c-0.97-1.021-1.716-2.285-2.25-3.753c-0.51-1.458-0.794-3.116-0.794-4.963
			c0-2.782,0.422-5.36,1.209-7.773c0.808-2.414,1.938-4.512,3.38-6.291c1.443-1.778,3.177-3.173,5.208-4.181
			c2.018-1.016,4.254-1.531,6.703-1.531c1.718,0,3.253,0.276,4.657,0.828c1.38,0.558,2.571,1.343,3.558,2.376
			c0.987,1.025,1.755,2.288,2.288,3.752C1604.523,346.491,1604.775,348.154,1604.775,350.006z M1599.819,350.244
			c0-1.29-0.154-2.423-0.473-3.42c-0.313-0.993-0.771-1.832-1.345-2.503c-0.553-0.681-1.259-1.199-2.051-1.564
			c-0.832-0.366-1.721-0.542-2.727-0.542c-1.737,0-3.299,0.428-4.703,1.328c-1.423,0.879-2.587,2.039-3.549,3.49
			c-0.974,1.446-1.726,3.092-2.236,4.926c-0.514,1.841-0.79,3.723-0.79,5.657c0,1.207,0.161,2.322,0.47,3.317
			c0.301,0.954,0.738,1.841,1.287,2.542c0.573,0.685,1.248,1.229,2.077,1.604c0.81,0.364,1.739,0.562,2.768,0.562
			c1.752,0,3.332-0.442,4.736-1.312c1.402-0.874,2.564-2.036,3.535-3.484c0.971-1.48,1.717-3.093,2.231-4.947
			C1599.562,354.044,1599.819,352.162,1599.819,350.244z"/>
		<path fill="#303981" d="M1638.042,346.343c0,0.318-0.043,0.729-0.101,1.231c-0.08,0.51-0.176,1.074-0.273,1.653
			c-0.124,0.595-0.222,1.181-0.318,1.747c-0.122,0.587-0.238,1.095-0.321,1.496l-3.513,16.569h-4.917l3.69-17.712
			c0.083-0.313,0.162-0.685,0.237-1.084c0.079-0.422,0.158-0.841,0.218-1.253c0.061-0.411,0.101-0.792,0.139-1.131
			c0.041-0.342,0.063-0.615,0.063-0.812c0-1.496-0.379-2.677-1.088-3.542c-0.731-0.869-1.777-1.292-3.199-1.292
			c-1.305,0-2.59,0.342-3.872,1.145c-1.286,0.767-2.468,1.723-3.558,2.924c-1.083,1.185-2.015,2.474-2.782,3.891
			c-0.793,1.417-1.322,2.784-1.598,4.099l-3.16,14.768h-4.902l4.661-21.572c0.161-0.773,0.321-1.566,0.477-2.416
			c0.157-0.836,0.313-1.644,0.453-2.414c0.142-0.782,0.259-1.507,0.358-2.187c0.097-0.648,0.155-1.216,0.231-1.638h4.72
			c-0.074,0.77-0.214,1.569-0.349,2.406c-0.138,0.838-0.259,1.604-0.339,2.323c-0.143,0.821-0.261,1.63-0.398,2.413h0.121
			c0.671-1.081,1.463-2.1,2.294-3.06c0.845-0.956,1.735-1.785,2.727-2.507c0.964-0.716,2.012-1.28,3.098-1.695
			c1.083-0.401,2.252-0.62,3.452-0.62c1.329,0,2.494,0.213,3.455,0.614c0.971,0.401,1.762,0.967,2.397,1.694
			c0.652,0.718,1.125,1.598,1.417,2.62C1637.884,344.029,1638.042,345.154,1638.042,346.343z"/>
		<path fill="#303981" d="M1662.568,344.126c-0.873-0.56-1.857-1.036-2.98-1.389c-1.09-0.347-2.193-0.522-3.299-0.522
			c-1.854,0-3.298,0.423-4.306,1.271c-1.026,0.835-1.521,1.962-1.521,3.348c0,0.582,0.097,1.103,0.277,1.576
			c0.2,0.454,0.454,0.916,0.827,1.34c0.361,0.424,0.81,0.821,1.381,1.225c0.581,0.391,1.212,0.813,1.94,1.252
			c2.212,1.297,3.809,2.605,4.78,3.944c0.983,1.349,1.479,2.877,1.479,4.573c0,1.134-0.22,2.259-0.635,3.349
			c-0.449,1.084-1.101,2.053-2.027,2.889c-0.935,0.837-2.131,1.506-3.597,2.02c-1.487,0.521-3.261,0.77-5.372,0.77
			c-0.593,0-1.244-0.043-1.958-0.121c-0.71-0.074-1.421-0.196-2.132-0.351c-0.729-0.157-1.424-0.347-2.092-0.575
			c-0.656-0.229-1.227-0.5-1.72-0.775l0.991-4.606c0.366,0.271,0.866,0.543,1.453,0.818c0.574,0.251,1.208,0.528,1.898,0.74
			c0.675,0.216,1.363,0.396,2.114,0.532c0.73,0.135,1.481,0.208,2.214,0.208c1.974,0,3.438-0.396,4.427-1.182
			c0.967-0.786,1.458-1.882,1.458-3.269c0-0.537-0.08-0.985-0.215-1.429c-0.157-0.437-0.414-0.86-0.793-1.292
			c-0.376-0.434-0.868-0.863-1.479-1.31c-0.613-0.446-1.386-0.948-2.311-1.497c-2.015-1.211-3.497-2.49-4.445-3.862
			c-0.97-1.294-1.438-2.786-1.438-4.448c0-1.228,0.23-2.402,0.691-3.531c0.452-1.084,1.125-2.11,2.011-2.938
			c0.912-0.844,2.037-1.524,3.4-2.036c1.343-0.514,2.94-0.772,4.763-0.772c1.398,0,2.758,0.142,4.046,0.417
			c1.263,0.275,2.331,0.627,3.215,1.062L1662.568,344.126z"/>
	</g>
</g>
</svg>
